<svg width="11" height="10" viewBox="0 0 11 10" fill="none" xmlns="http://www.w3.org/2000/svg">
<path d="M9.46489 1.70726C9.24077 1.48304 8.97467 1.30517 8.6818 1.18381C8.38892 1.06246 8.07501 1 7.75798 1C7.44096 1 7.12704 1.06246 6.83417 1.18381C6.54129 1.30517 6.27519 1.48304 6.05108 1.70726L5.58596 2.17238L5.12084 1.70726C4.66814 1.25456 4.05414 1.00023 3.41393 1.00023C2.77372 1.00023 2.15972 1.25456 1.70702 1.70726C1.25432 2.15996 1 2.77395 1 3.41416C1 4.05438 1.25432 4.66837 1.70702 5.12107L2.17214 5.58619L5.58596 9L8.99977 5.58619L9.46489 5.12107C9.68911 4.89695 9.86698 4.63086 9.98833 4.33798C10.1097 4.0451 10.1721 3.73119 10.1721 3.41416C10.1721 3.09714 10.1097 2.78322 9.98833 2.49035C9.86698 2.19747 9.68911 1.93137 9.46489 1.70726V1.70726Z" stroke="#28293D" stroke-linecap="round" stroke-linejoin="round"/>
</svg>
